<svg xmlns="http://www.w3.org/2000/svg" fill="none" viewBox="0 0 24 24"><path fill="#FE554A" fill-rule="evenodd" d="m2.75 3.2499 2.08.36.963 11.473c.077.937.86 1.656 1.8 1.653h10.909c.897.002 1.658-.658 1.785-1.546l.949-6.558c.106-.733-.403-1.413-1.135-1.519-.064-.009-14.937-.014-14.937-.014" clip-rule="evenodd"/><path stroke="#FE554A" stroke-linecap="round" stroke-linejoin="round" stroke-width="1.5" d="m2.75 3.2499 2.08.36.963 11.473c.077.937.86 1.656 1.8 1.653h10.909c.897.002 1.658-.658 1.785-1.546l.949-6.558c.106-.733-.403-1.413-1.135-1.519-.064-.009-14.937-.014-14.937-.014"/><path stroke="#130F26" stroke-linecap="round" stroke-linejoin="round" stroke-opacity=".4" stroke-width="1.5" d="M14.125 10.7948h2.773"/><path fill="#FE554A" fill-rule="evenodd" stroke="#FE554A" stroke-linecap="round" stroke-linejoin="round" stroke-width="1.5" d="M7.1543 20.2025c.301 0 .544.244.544.544 0 .301-.243.545-.544.545a.5441.5441 0 0 1-.544-.545c0-.3.243-.544.544-.544Zm11.2803 0c.301 0 .545.244.545.544a.545.545 0 0 1-.545.545.5441.5441 0 0 1-.544-.545c0-.3.243-.544.544-.544Z" clip-rule="evenodd"/></svg>