<svg xmlns="http://www.w3.org/2000/svg" fill="none" viewBox="0 0 64 64"><circle cx="32" cy="32" r="32" fill="#F7EAEB"/><path fill="url(#a)" d="m52.44 19.44-.01.01v.01l-.02.02-12.92 13.57-3.04 3.2-.02-.01-.05-.03-12.44-5.55.45-.2 2.1-1 2.92-1.36.02-.01 21.82-10.22a1 1 0 0 1 1.19 1.57Z"/><path fill="#000" d="M11.23 26.23Zm25.22 10.02-1.12-.42c-.7-.28-1.72-.66-2.93-1.15a211.37 211.37 0 0 1-8.78-3.74l-2.36-1.07-2.28-1.05c-1.47-.7-2.84-1.35-4-1.93-.6-.28-1.12-.55-1.6-.79l-.66-.33a1.1 1.1 0 0 0-.57-.1 1.22 1.22 0 0 0-.8.4l-.04.05a.3.3 0 0 0-.03.04 1.22 1.22 0 0 1 1.55-.46l11.11 4.96.46-.21a311.6 311.6 0 0 1 8.18 3.83l2.81 1.41.99.52.05.03h.02Z" opacity=".2" style="mix-blend-mode:multiply"/><path fill="url(#b)" d="m36.45 36.25-4.9 5.15v.01h-.01l-3.9 4.11a2.2 2.2 0 0 1-1.03.63 2.34 2.34 0 0 1-2.56-.88l-7.8-10.82v-.01l-.1-.13-4.84-6.73a1.21 1.21 0 0 1-.09-1.34v-.01h.01l.05-.07a1.22 1.22 0 0 1 1.55-.46l11.11 4.96 12.44 5.55.05.03h.02Z"/><path fill="#000" d="m39.5 33.05-3.05 3.2-.02-.01-12.5-5.58.46-.2 2.1-1 13 3.6Z" opacity=".2" style="mix-blend-mode:multiply"/><path fill="#fff" d="M11.23 26.23v.01-.01Zm25.22 10.02-1.12-.42c-.7-.28-1.72-.66-2.93-1.15a211.37 211.37 0 0 1-8.78-3.74l-2.36-1.07-2.28-1.05c-1.47-.7-2.84-1.35-4-1.93-.6-.28-1.12-.55-1.6-.79l-.66-.33a1.1 1.1 0 0 0-.57-.1 1.22 1.22 0 0 0-.87.5 1.22 1.22 0 0 1 1.55-.47l11.11 4.96 12.44 5.55.05.03h.02Z" opacity=".5" style="mix-blend-mode:screen"/><path fill="#000" d="m31.54 41.41-3.9 4.11a2.2 2.2 0 0 1-1.03.63 2.33 2.33 0 0 1-2.56-.88l-7.8-10.82c.06.06.29.32.64.75.4.5.98 1.2 1.65 2.05.67.85 1.44 1.85 2.26 2.94.81 1.07 1.66 2.25 2.52 3.41l.62.89.31.44.09.1.06.1.16.18a2 2 0 0 0 2.75.1l.1-.08.03-.03.04-.04.16-.16a71 71 0 0 1 1.26-1.23c.78-.75 1.45-1.36 1.91-1.8l.73-.66Z" opacity=".2" style="mix-blend-mode:multiply"/><path fill="#fff" d="M52.56 19.22a.92.92 0 0 0-.02-.78.89.89 0 0 0-.96-.51c-.25.08-.48.19-.7.32l-.8.42c-1.13.58-2.45 1.24-3.86 1.93-.71.34-1.44.71-2.2 1.06l-2.26 1.07a301.82 301.82 0 0 1-8.44 3.78c-1.16.5-2.14.88-2.83 1.16l-1.05.42 21.81-10.22a1 1 0 0 1 1.19 1.57.94.94 0 0 0 .12-.22Z" opacity=".5" style="mix-blend-mode:screen"/><path fill="#fff" d="m51.53 19.1-1.64 1.72-3.54 3.72-16.28 4.25a34007.57 34007.57 0 0 1 20.58-9.64l.88-.41c.35-.17.15.2 0 .36Zm-16.6 17.45-2.23 2.34-.62.65-19.74-13.03c.22.04.44.12.64.24a76539.17 76539.17 0 0 0 21.95 9.8Z" opacity=".3" style="mix-blend-mode:screen"/><defs><linearGradient id="a" x1="16.15" x2="52.68" y1="27.01" y2="27.01" gradientUnits="userSpaceOnUse"><stop stop-color="#F8007A"/><stop offset="1" stop-color="#FC7300"/></linearGradient><linearGradient id="b" x1="33.53" x2="15.63" y1="32.22" y2="39.19" gradientUnits="userSpaceOnUse"><stop stop-color="#FCC400"/><stop offset=".16" stop-color="#FBC000"/><stop offset=".31" stop-color="#FBB500"/><stop offset=".45" stop-color="#FBA300"/><stop offset=".58" stop-color="#FA8900"/><stop offset=".71" stop-color="#FA6800"/><stop offset=".84" stop-color="#F93F00"/><stop offset=".97" stop-color="#F81000"/><stop offset="1" stop-color="#F80300"/></linearGradient></defs></svg>