<svg width="62" height="62" viewBox="0 0 62 62" fill="none" xmlns="http://www.w3.org/2000/svg">
<path fill-rule="evenodd" clip-rule="evenodd" d="M61 31C61 47.5685 47.5685 61 31 61C14.4315 61 1 47.5685 1 31C1 14.4315 14.4315 1 31 1C47.5685 1 61 14.4315 61 31ZM30.9886 38.9771C35.9528 38.9771 39.9771 34.9528 39.9771 29.9886C39.9771 25.0243 35.9528 21 30.9886 21C26.0243 21 22 25.0243 22 29.9886C22 34.9528 26.0243 38.9771 30.9886 38.9771Z" fill="#D9D9D9"/>
<path d="M39.9771 29.9886C39.9771 34.9528 35.9528 38.9771 30.9886 38.9771C26.0243 38.9771 22 34.9528 22 29.9886C22 25.0243 26.0243 21 30.9886 21C35.9528 21 39.9771 25.0243 39.9771 29.9886Z" fill="#D9D9D9"/>
<path d="M37.2403 36.7071L40.7643 40.222M61 31C61 47.5685 47.5685 61 31 61C14.4315 61 1 47.5685 1 31C1 14.4315 14.4315 1 31 1C47.5685 1 61 14.4315 61 31ZM39.9771 29.9886C39.9771 34.9528 35.9528 38.9771 30.9886 38.9771C26.0243 38.9771 22 34.9528 22 29.9886C22 25.0243 26.0243 21 30.9886 21C35.9528 21 39.9771 25.0243 39.9771 29.9886Z" stroke="white" stroke-width="1.5" stroke-linecap="round" stroke-linejoin="round"/>
</svg>
