<svg xmlns="http://www.w3.org/2000/svg" fill="none" viewBox="0 0 92 93"><g clip-path="url(#a)"><path fill="#FCDB9A" d="M12.108 8.444v67.305a5.376 5.376 0 0 0 5.38 5.399h66.74c4.797 0 7.254-5.81 3.86-9.272L21.35 4.631c-3.392-3.463-9.24-1.057-9.24 3.813Z"/><path fill="#F7C18B" d="m3.86 14.547 10.704-10.68c1.287-1.231 4.679.118 5.908 1.408l66.62 67.716c.938.938 2.575 4.518.586 7.217l-8.657 8.275c-.995 1.408-2.106 1.467-3.335.234L5.732 20.238c-1.403-1.348-3.275-4.283-1.872-5.69Z"/><path fill="#4C2F1B" d="M77.385 93c-1.111 0-2.574-.351-4.094-1.878L3.392 22.702C2.808 22.176 0 19.242 0 15.839c0-1.408.526-2.758 1.522-3.696l10.645-10.68C15.326-1.59 20.825.758 22.871 2.87l66.621 67.714c1.813 1.76 4.094 7.218.935 11.618l-.409.47-8.481 8.098c-1.287 1.643-2.75 2.112-3.803 2.23h-.349ZM6.96 16.249c.235.47.644 1.056 1.17 1.584l69.137 67.715 7.837-7.452c.528-.997-.174-2.464-.409-2.699L18.074 7.682c-.293-.293-1.111-.645-1.696-.821L6.96 16.248Z"/><path fill="#F98" d="M60.013 78.799c-2.516 0-3.977-1.701-5.206-3.228-.234-.234-.41-.528-.702-.763l-40.36-40.956-.059-.059c-2.164-2.465-3.1-5.75-2.514-8.978.585-3.228 2.514-6.044 5.44-7.628 3.45-1.936 8.13-4.343 9.65-4.87.995-.352 1.873-.764 2.692-1.174 1.697-.763 3.276-1.527 5.264-1.527 4.972 0 9.008 4.343 19.478 18.308 8.072 10.797 18.19 19.306 25.619 25.584 2.69 2.288 5.03 4.225 6.726 5.867 1.111 1.115 1.696 2.582 1.638 4.224-.233 3.873-4.212 7.688-5.732 8.802l-.526.41-17.665 4.754c-1.053.59-2.28 1.234-3.743 1.234Z"/><path fill="#4C2F1B" d="M60.013 81.494c-3.703 0-5.825-2.486-7.231-4.13l-.105-.12c-.175-.175-.373-.373-.52-.572L11.732 35.64l-.032-.07c-2.788-3.152-3.943-7.233-3.225-11.275a13.545 13.545 0 0 1 6.783-9.479c3.036-1.74 8.249-4.413 10.017-5.059.614-.245 1.153-.484 1.694-.721l1.116-.49c1.725-.76 3.68-1.622 6.074-1.622 6.44 0 11.282 5.607 21.604 19.375 7.841 10.507 17.805 18.89 25.08 25.008l.123.104c2.294 1.91 4.903 4.112 6.873 5.96 1.713 1.664 2.571 3.925 2.41 6.36-.391 5.995-6.683 10.728-6.746 10.77l-.992.716-1.11.318-16.648 4.485-.091.058c-1.47.942-3.033 1.417-4.65 1.417ZM34.159 12.252c-1.436 0-2.685.59-4.267 1.336-.818.387-1.745.825-2.826 1.233-1.185.395-5.715 2.738-9.218 4.678a8.06 8.06 0 0 0-4.062 5.67 8.164 8.164 0 0 0 1.882 6.8l40.39 40.991c.274.308.542.623.788.912 1.104 1.296 1.901 2.233 3.166 2.233.726 0 1.473-.317 2.477-1.058l17.605-4.753.107-.078c1.797-1.327 4.522-4.409 4.666-6.808.051-.86-.224-1.601-.799-2.143-1.701-1.642-4.06-3.635-6.793-5.943-7.44-6.282-17.63-14.886-25.822-25.828-10.09-13.535-13.807-17.242-17.294-17.242Z"/><path fill="#FF624D" d="M49.134 73.812c-8.658 0-17.431-4.577-23.456-12.205-9.944-12.556-9.535-29.515.936-37.847 3.744-2.993 8.423-4.577 13.453-4.577 8.657 0 17.43 4.577 23.456 12.206 9.944 12.556 9.535 29.515-.937 37.848-3.743 2.99-8.422 4.575-13.452 4.575Z"/><path fill="#4C2F1B" d="M49.134 76.505c-9.49 0-19.057-4.943-25.592-13.225-10.834-13.674-10.228-32.338 1.349-41.607 4.192-3.355 9.42-5.126 15.117-5.126 9.431 0 18.997 4.947 25.593 13.229 5.144 6.495 7.915 14.253 7.8 21.845-.114 8.132-3.364 15.15-9.15 19.758-4.192 3.354-9.42 5.126-15.117 5.126Zm-9.126-54.628c-4.418 0-8.493 1.37-11.784 3.964-9.253 7.402-9.462 22.669-.467 34.034C33.339 66.878 41.33 71.06 49.134 71.06c4.417 0 8.493-1.371 11.784-3.965 9.253-7.403 9.461-22.668.467-34.034-5.583-7.004-13.575-11.183-21.377-11.183Z"/><path fill="#FF7A6C" d="M61.592 47.112c0 .843.68 1.527 1.522 1.527.84 0 1.52-.683 1.52-1.527 0-.842-.68-1.525-1.52-1.525-.841 0-1.522.683-1.522 1.525Z"/><path fill="#6CEA90" d="M13.745 12.61s8.774-6.982 14.565 0c5.79 6.983 1.989 9.565 9.534 11.326 7.546 1.76 3.217 9.8 7.837 11.735 4.621 1.936 13.688-1.702 13.921 7.1.235 8.802 1.58 8.45 5.03 11.325 3.51 2.875 11.992-3.11 12.81 5.516.762 8.685-.234 8.566 2.223 11.5 4.387 5.282-6.025 8.567-12.635 7.512-6.61-.998-3.041-3.345-5.673-5.516S8.422 14.84 8.422 14.84s-.057-1.467 5.323-2.23Z"/><path fill="#4C2F1B" d="M69.605 81.5c-1.052 0-2.047-.06-2.982-.236-4.387-.704-6.318-2.172-6.727-5.398-.059-.528-.059-.528-.235-.704-2.63-2.171-44.805-49.172-53.227-58.56l-.643-.706-.059-.996c-.117-2.465 2.223-4.108 6.902-4.872 4.036-2.875 12.107-5.926 17.724.821 2.631 3.228 3.509 5.634 4.153 7.394.702 1.995.818 2.289 3.92 2.993 6.024 1.408 6.785 6.103 7.252 8.978.292 1.996.527 2.641 1.053 2.875.994.41 2.631.47 4.21.528 4.153.176 11.172.41 11.407 9.036.176 6.278.643 6.63 2.69 8.215.41.351.878.704 1.404 1.116.468.41 2.28.234 3.45.117 3.102-.293 9.593-.821 10.295 7.277.235 2.64.293 4.519.35 5.867.117 2.758.117 2.758 1.228 4.107 1.814 2.171 2.223 4.695.994 6.867-2.163 3.696-8.245 5.28-13.159 5.28Zm-4.328-6.104c.233.117.877.352 2.164.528 4.855.763 10.177-1.232 10.587-2.406 0 0-.058-.234-.41-.644-2.164-2.582-2.34-3.815-2.456-7.335-.058-1.291-.117-3.11-.35-5.633-.234-2.523-.585-2.7-4.446-2.348-2.457.234-5.206.47-7.37-1.35-.469-.351-.878-.704-1.228-.997-3.334-2.582-4.562-4.226-4.796-12.382-.059-3.227-1.227-3.579-6.141-3.755-2.048-.06-4.212-.176-6.084-.94-3.45-1.408-3.918-4.694-4.328-7.041-.469-2.816-.702-3.99-3.1-4.519-5.499-1.29-6.669-3.345-7.78-6.454-.585-1.525-1.17-3.286-3.217-5.75-4.036-4.87-10.528.174-10.763.41l-.585.47-.701.117c-.526.06-.995.176-1.404.235 19.946 22.239 48.256 53.632 50.362 55.45 1.814 1.468 2.047 3.228 2.164 4.166-.176.002-.118.061-.118.178Z"/><path fill="#FFE9B8" d="M3.159 17.246v67.303c0 2.993 2.397 5.4 5.38 5.4h66.74c4.795 0 7.253-5.81 3.86-9.27L12.4 13.432c-3.392-3.405-9.242-.998-9.242 3.813Z"/><path fill="#4C2F1B" d="M8.54 92.7c-4.447 0-8.066-3.63-8.066-8.091V17.247c0-3.325 1.96-6.269 4.997-7.498a8.032 8.032 0 0 1 3.07-.606c2.148 0 4.247.868 5.758 2.385l66.738 67.303c2.36 2.367 3.02 5.757 1.72 8.846-1.3 3.1-4.164 5.024-7.477 5.024H8.54V92.7Zm.058-78.158c-.434 0-.784.122-.993.195l-.141.055c-1.338.67-1.62 1.737-1.62 2.512v67.303c0 1.498 1.261 2.764 2.756 2.764h66.738c.773 0 1.837-.283 2.505-1.627.296-.594.52-1.904-.526-3.028l-66.813-67.38a2.636 2.636 0 0 0-1.906-.794Z"/><path fill="#FF7461" d="M47.554 28.512c0 .843.681 1.527 1.52 1.527.84 0 1.52-.683 1.52-1.527 0-.842-.68-1.525-1.52-1.525-.839 0-1.52.683-1.52 1.526Z"/><path fill="#FF7A6C" d="M54.046 31.27c0 .843.68 1.526 1.52 1.526s1.52-.683 1.52-1.525c0-.843-.68-1.527-1.52-1.527s-1.52.683-1.52 1.527Z"/><path fill="#FFD899" d="M12.693 54.449a2.987 2.987 0 0 0 2.983 2.992 2.987 2.987 0 0 0 2.983-2.992c0-1.07-.568-2.057-1.491-2.593a2.976 2.976 0 0 0-2.983 0 2.995 2.995 0 0 0-1.492 2.593Zm38.37 24.35a2.987 2.987 0 0 0 2.983 2.992 2.987 2.987 0 0 0 2.983-2.992 2.987 2.987 0 0 0-2.983-2.992 2.987 2.987 0 0 0-2.983 2.992Zm-16.26-18.072c0 1.07.568 2.056 1.492 2.592.922.534 2.06.534 2.983 0a2.994 2.994 0 0 0 1.49-2.592 2.992 2.992 0 0 0-1.49-2.591 2.976 2.976 0 0 0-2.983 0 2.992 2.992 0 0 0-1.492 2.59Zm0 14.669c0 1.069.568 2.057 1.492 2.591.922.534 2.06.534 2.983 0a2.992 2.992 0 0 0 1.49-2.59c0-1.07-.567-2.058-1.49-2.593a2.976 2.976 0 0 0-2.983 0 2.995 2.995 0 0 0-1.492 2.592Zm-8.131-9.506c0 1.069.57 2.057 1.491 2.591a2.977 2.977 0 0 0 2.983 0 2.992 2.992 0 0 0 1.492-2.59 2.99 2.99 0 0 0-1.492-2.592 2.97 2.97 0 0 0-2.983 0 2.995 2.995 0 0 0-1.49 2.591ZM24.86 44.18c0 1.07.567 2.056 1.49 2.592a2.977 2.977 0 0 0 2.983 0 2.997 2.997 0 0 0 0-5.183 2.976 2.976 0 0 0-2.982 0 2.99 2.99 0 0 0-1.492 2.59Z"/><path fill="#FFE3B6" d="M11.348 65.597a2.987 2.987 0 0 0 2.982 2.992 2.987 2.987 0 0 0 2.983-2.992 2.992 2.992 0 0 0-1.491-2.591 2.976 2.976 0 0 0-2.983 0 2.992 2.992 0 0 0-1.492 2.59Zm6.609 10.797c0 1.07.568 2.056 1.492 2.592.922.534 2.06.534 2.982 0a2.995 2.995 0 0 0 1.492-2.592 2.993 2.993 0 0 0-1.492-2.591 2.976 2.976 0 0 0-2.982 0 2.992 2.992 0 0 0-1.492 2.59Zm28.311-7.569a2.987 2.987 0 0 0 2.982 2.992 2.987 2.987 0 0 0 2.983-2.992 2.987 2.987 0 0 0-2.983-2.993 2.987 2.987 0 0 0-2.982 2.993ZM13.57 42.067a2.988 2.988 0 0 0 2.982 2.993 2.987 2.987 0 0 0 2.983-2.993c0-1.07-.568-2.056-1.491-2.592a2.976 2.976 0 0 0-2.983 0 2.998 2.998 0 0 0-1.492 2.592Z"/></g><defs><clipPath id="a"><path fill="#fff" d="M0 0h92v93H0z"/></clipPath></defs></svg>