<svg xmlns="http://www.w3.org/2000/svg" fill="none" viewBox="0 0 73 107"><g clip-path="url(#a)"><path fill="#F6BF54" d="M10.1034 65.9596c-.0593-.8867.5294-1.6544 1.4136-1.8305 4.4188-.8272 17.4366-2.5399 24.3289 1.1223 7.3635 3.8992 18.4965.7082 23.4447-.945 1.1786-.413 2.3559.532 2.1791 1.7722l-3.8883 38.5734c-.0593.886-.8249 1.477-1.6498 1.477H16.2895c-.8842 0-1.5311-.65-1.6498-1.477l-4.5363-38.6924Z"/><path fill="#F6BF54" d="M28.1372 96.9534c-.2507 0-.5644 0-.7522-.062-1.6922-.3778-2.6963-2.0747-2.3196-3.8359l19.9391-81.9898c.2508-1.0689 1.003-1.8864 2.0059-2.2641l19.938-6.6638c.3137-.0631.6892-.1263 1.0029-.1263 1.3167 0 2.5704.8807 2.9471 2.201.2507.7555.2507 1.635-.126 2.3893s-1.0029 1.3203-1.7551 1.5718l-18.3088 6.0369-19.5624 80.3548c-.3125 1.3823-1.6292 2.3881-3.0089 2.3881Z"/><path fill="#4C2F1B" d="M67.9525 3.7096c.5645 0 1.003.3146 1.1907.8807.2508.628-.126 1.3823-.7522 1.635l-19.2487 6.4754-19.8132 81.3605c-.1247.5661-.6262.9426-1.2537.9426h-.3137c-.6904-.1263-1.0659-.8806-.94-1.5718l19.938-81.9885c.063-.3765.3767-.7543.8782-.9438l19.9379-6.665c.063 0 .1877-.125.3767-.125Zm0-3.7096c-.5644 0-1.0659.0632-1.6304.2514l-19.9379 6.665c-1.6304.566-2.8841 1.8864-3.2608 3.5833L23.2472 92.6158c-.6262 2.7038 1.003 5.4709 3.6993 6.0989.3755.0631.7522.1263 1.1907.1263 2.3196 0 4.3268-1.5718 4.8912-3.8348l19.2487-79.349 17.3058-5.8474c1.2537-.4397 2.3197-1.3204 2.8841-2.5776.6275-1.2584.6905-2.5788.2508-3.836C71.9655 1.3836 70.1474 0 67.9525 0Z"/><path fill="#F6BF54" d="M27.8235 95.005h.3137c.5645 0 1.0659-.3777 1.2537-.9426l7.2108-29.8034c-.2507-.0619-.4384-.2514-.6904-.3146-.5633-.2514-1.0659-.566-1.6304-.6911l-7.3986 30.2431c-.1248.628.2519 1.3823.9412 1.5086Z"/><path fill="#4C2F1B" d="M15.0334 107c-.149 0-.3161-.049-.5124-.147-.5002-.204-.8224-.616-.8539-1.066L8.8376 64.7085c-.0048-.0802.0182-.1968.0448-.3316l.0134-.0693-.0025-.1008-1.1059-9.3955-.3743-.0268C3.3251 54.4991 0 50.9364 0 46.8417c0-4.3206 3.64-7.9707 7.9485-7.9707H9.883l.0763-.3608C12.75 25.2848 23.3962 16.0471 35.8495 16.0471c12.3347 0 23.1431 9.4442 25.7013 22.4571l.0727.3668h.9993c4.3086 0 7.9486 3.6501 7.9486 7.9707 0 3.7825-2.8212 7.1521-6.5629 7.8372l-.3355.0619-4.9493 49.3972c-.0206.212-.0679.433-.1454.676l-.1066.958c-.0969.677-.6335 1.162-1.3046 1.162h-.883c-.2774.045-.4785.064-.6844.064H15.0334V107Zm7.9631-39.6119c-2.4723 0-4.8925.2004-7.0292.3765l-1.2476.102 3.9234 33.6284h34.9858l3.1131-31.278-.6117.1361c-4.1439.9244-7.7426 1.3726-10.9998 1.3726-4.632 0-8.6959-.8916-12.0803-2.6517-1.1241-.6267-3.9403-1.6859-10.0537-1.6859Zm0-5.3774c5.5235 0 9.7121.7628 12.4473 2.269 2.683 1.375 5.8953 2.0686 9.5607 2.0686 3.6012 0 7.6518-.6244 12.0403-1.856l.298-.0838.9533-9.5329H13.2068l.9 7.7315.4518-.0547c2.9362-.3595 5.7754-.5417 8.4379-.5417ZM8.0733 44.1864c-1.3906 0-2.5231 1.1346-2.5231 2.5302 0 1.4188 1.1083 2.5302 2.523 2.5302h54.6744c1.3675 0 2.5231-1.1588 2.5231-2.5302 0-1.4187-1.1083-2.5302-2.5231-2.5302h-.6275c-2.729 0-5.1274-1.9641-5.7003-4.6692-2.1791-10.4827-10.8314-18.0914-20.5703-18.0914-9.8308 0-18.4565 7.6124-20.5084 18.0987-.5173 2.7027-2.9132 4.6632-5.7004 4.6632H8.0733v-.0013Z"/><path fill="#F7D5A4" d="M42.6207 78.0918c0 1.1455.9266 2.0747 2.0689 2.0747 1.1434 0 2.0701-.9292 2.0701-2.0747 0-1.1454-.9267-2.0746-2.0701-2.0746-1.1423-.0013-2.0689.928-2.0689 2.0746Zm4.139 8.9911c0 1.1454.9266 2.0747 2.0689 2.0747 1.1422 0 2.0689-.9293 2.0689-2.0747 0-1.1455-.9267-2.0759-2.0689-2.0759-1.1423 0-2.0689.9292-2.0689 2.0759Zm-24.5167.0632c0 .8332.6735 1.5086 1.5057 1.5086.8309 0 1.5056-.6754 1.5056-1.5086 0-.8333-.6735-1.5099-1.5056-1.5099-.831 0-1.5057.6754-1.5057 1.5099Zm.5015-9.0543c0 .5563.4494 1.0058 1.003 1.0058.5547 0 1.0029-.4507 1.0029-1.0058s-.4494-1.0057-1.0029-1.0057c-.5536-.0013-1.003.4494-1.003 1.0057Zm20.9421 16.7869c0 .3814.3089.6924.6893.6924.3815 0 .6904-.3098.6904-.6924a.6908.6908 0 0 0-.6904-.6911c-.3804 0-.6893.3097-.6893.6911Z"/></g><defs><clipPath id="a"><path fill="#fff" d="M0 0h73v107H0z"/></clipPath></defs></svg>