<svg width="92" height="93" viewBox="0 0 92 93" fill="none" xmlns="http://www.w3.org/2000/svg">
<g clip-path="url(#clip0_3_562)">
<path d="M12.1083 8.44401V75.7488C12.1083 78.7411 14.5061 81.1478 17.4889 81.1478H84.2282C89.0251 81.1478 91.4819 75.3382 88.0885 71.8761L21.3492 4.63059C17.9572 1.1685 12.1083 3.57393 12.1083 8.44401Z" fill="#FCDB9A"/>
<path d="M3.86034 14.5471L14.5638 3.86739C15.8506 2.63572 19.2426 3.9845 20.4717 5.27538L87.0929 72.9907C88.0295 73.9289 89.6665 77.5094 87.678 80.2083L79.0207 88.4826C78.0265 89.8906 76.9155 89.9498 75.6864 88.7168L5.73213 20.2383C4.32862 18.8895 2.45682 15.9551 3.86034 14.5471Z" fill="#F7C18B"/>
<path d="M77.385 93C76.274 93 74.8115 92.6487 73.2912 91.1222L3.39206 22.7029C2.80835 22.1752 0 19.2408 0 15.838C0 14.43 0.525992 13.0799 1.52157 12.1416L12.1673 1.46193C15.3259 -1.5896 20.8245 0.757938 22.8708 2.86993L89.492 70.5839C91.3048 72.3446 93.5858 77.8016 90.4273 82.2019L90.018 82.6716L81.5366 90.7696C80.2498 92.4131 78.7872 92.8816 77.734 93H77.385ZM6.95988 16.2485C7.19467 16.7183 7.60392 17.3052 8.12992 17.8328L77.267 85.5481L85.1044 78.0963C85.6317 77.0989 84.9299 75.6317 84.6951 75.3974L18.0739 7.68211C17.7814 7.38867 16.9629 7.03733 16.3779 6.861L6.95988 16.2485Z" fill="#4C2F1B"/>
<path d="M60.0129 78.799C57.4971 78.799 56.0358 77.0976 54.8068 75.5712C54.5733 75.3369 54.3975 75.0435 54.105 74.8079L13.7453 33.8524L13.6863 33.7932C11.522 31.3285 10.5867 28.0428 11.1718 24.8149C11.7568 21.5871 13.6863 18.7711 16.6114 17.1868C20.0625 15.2511 24.7413 12.8443 26.2629 12.3167C27.2571 11.9653 28.1347 11.5535 28.9545 11.1429C30.6505 10.3797 32.2298 9.61649 34.2183 9.61649C39.1897 9.61649 43.2258 13.9589 53.6958 27.9244C61.768 38.7212 71.8864 47.2297 79.3146 53.5077C82.0049 55.7961 84.3449 57.7331 86.041 59.3753C87.152 60.4898 87.737 61.957 87.6793 63.5993C87.4458 67.4719 83.4674 71.2866 81.9472 72.4012L81.4212 72.8117L63.7565 77.5647C62.7032 78.1542 61.4754 78.799 60.0129 78.799Z" fill="#FF9988"/>
<path d="M60.0129 81.4939C56.31 81.4939 54.1876 79.0082 52.7815 77.3633L52.6766 77.2436C52.5021 77.0686 52.304 76.8712 52.1571 76.6725L11.7319 35.6394L11.7004 35.5683C8.9117 32.4168 7.7574 28.3362 8.4749 24.2938C9.20027 20.2606 11.6728 16.8064 15.2577 14.8155C18.2943 13.0746 23.507 10.402 25.2751 9.75595C25.889 9.51119 26.4281 9.2717 26.9686 9.03484L28.0848 8.54533C29.8097 7.78475 31.7641 6.92285 34.1593 6.92285C40.5984 6.92285 45.4412 12.5298 55.763 26.2979C63.6043 36.8052 73.568 45.1874 80.8427 51.3063L80.966 51.4102C83.2601 53.3209 85.8691 55.5223 87.8393 57.3698C89.5524 59.0344 90.4102 61.2951 90.2489 63.7295C89.858 69.7247 83.5658 74.4579 83.5028 74.5L82.5112 75.2158L81.4015 75.5343L64.7534 80.0188L64.6616 80.0767C63.1925 81.0189 61.6289 81.4939 60.0129 81.4939ZM34.1593 12.2522C32.723 12.2522 31.4742 12.8417 29.8923 13.5878C29.0738 13.9747 28.1465 14.4129 27.0656 14.8208C25.8812 15.2155 21.3505 17.5591 17.8483 19.4987C15.6971 20.6843 14.2162 22.7516 13.786 25.1689C13.3518 27.6072 14.0378 30.0863 15.6683 31.9694L56.0581 72.9604C56.3323 73.2683 56.5998 73.5828 56.8464 73.8723C57.9496 75.1685 58.7471 76.1054 60.0116 76.1054C60.7383 76.1054 61.4846 75.7882 62.4894 75.0474L80.0937 70.2944L80.2013 70.2155C81.9983 68.8891 84.7227 65.8073 84.867 63.4084C84.9181 62.5478 84.6427 61.807 84.0682 61.2648C82.3669 59.6226 80.0071 57.6304 77.2749 55.3223C69.8349 49.0403 59.6443 40.4357 51.4527 29.4942C41.3631 15.959 37.6458 12.2522 34.1593 12.2522Z" fill="#4C2F1B"/>
<path d="M49.1336 73.8118C40.4764 73.8118 31.7025 69.2351 25.6778 61.607C15.7338 49.0508 16.1431 32.0917 26.6144 23.7596C30.358 20.7672 35.0368 19.1829 40.0672 19.1829C48.7244 19.1829 57.497 23.7596 63.523 31.389C73.467 43.9452 73.0577 60.9043 62.5864 69.2365C58.8428 72.2275 54.164 73.8118 49.1336 73.8118Z" fill="#FF624D"/>
<path d="M49.1336 76.5054C39.6448 76.5054 30.0773 71.5617 23.5424 63.2795C12.7077 49.6062 13.3137 30.9417 24.8908 21.6726C29.083 18.3184 34.3114 16.5472 40.0081 16.5472C49.4393 16.5472 59.0055 21.4936 65.6007 29.7758C70.7452 36.271 73.5155 44.0294 73.4014 51.6208C73.2873 59.7529 70.0369 66.7705 64.251 71.3787C60.0588 74.7329 54.8304 76.5054 49.1336 76.5054ZM40.0081 21.8766C35.5903 21.8766 31.5149 23.2477 28.2238 25.8413C18.9711 33.2432 18.7625 48.51 27.7569 59.8753C33.3395 66.8784 41.3303 71.059 49.1336 71.059C53.5514 71.059 57.6269 69.6878 60.918 67.0942C70.1707 59.6911 70.3792 44.4255 61.3849 33.0603C55.8023 26.0558 47.8101 21.8766 40.0081 21.8766Z" fill="#4C2F1B"/>
<path d="M61.5922 47.1125C61.5922 47.9547 62.2729 48.639 63.1137 48.639C63.9532 48.639 64.634 47.956 64.634 47.1125C64.634 46.2704 63.9532 45.5874 63.1137 45.5874C62.2729 45.5874 61.5922 46.2704 61.5922 47.1125Z" fill="#FF7A6C"/>
<path d="M13.7453 12.6101C13.7453 12.6101 22.5193 5.62803 28.3104 12.6101C34.1003 19.5935 30.2989 22.1753 37.8438 23.9359C45.3901 25.6952 41.0614 33.7353 45.6813 35.6709C50.3024 37.6066 59.3688 33.9695 59.6023 42.7714C59.8371 51.5734 61.1816 51.2207 64.6327 54.0959C68.1428 56.9711 76.6242 50.9865 77.4427 59.6121C78.2035 68.2969 77.208 68.1785 79.6648 71.1129C84.0524 76.3936 73.6401 79.6793 67.0305 78.624C60.4208 77.6265 63.9886 75.279 61.3574 73.1078C58.7248 70.9366 8.42242 14.8405 8.42242 14.8405C8.42242 14.8405 8.3647 13.3733 13.7453 12.6101Z" fill="#6CEA90"/>
<path d="M69.6054 81.4992C68.5534 81.4992 67.5578 81.44 66.6226 81.2636C62.2362 80.5596 60.3054 79.0924 59.8962 75.8659C59.8371 75.3382 59.8371 75.3382 59.6614 75.1619C57.0301 72.9907 14.8563 25.99 6.43389 16.6012L5.79115 15.8959L5.73213 14.8997C5.61539 12.4351 7.95546 10.7916 12.6343 10.0283C16.6704 7.15313 24.7413 4.1016 30.358 10.8494C32.9893 14.0773 33.8668 16.4827 34.5108 18.2434C35.2126 20.2383 35.3293 20.5317 38.4302 21.2357C44.4548 22.6437 45.2156 27.3388 45.6826 30.214C45.9751 32.2102 46.2099 32.855 46.7359 33.0892C47.7301 33.4997 49.3671 33.559 50.9464 33.6169C55.0993 33.7932 62.1182 34.0274 62.353 42.653C62.5287 48.9311 62.9957 49.2838 65.0433 50.8681C65.4525 51.2194 65.9208 51.5721 66.4468 51.9839C66.9151 52.3945 68.7278 52.2182 69.8979 52.1011C72.9987 51.8076 79.4903 51.2799 80.1921 59.3779C80.4269 62.0175 80.4846 63.8966 80.5423 65.2454C80.659 68.0035 80.659 68.0035 81.7701 69.3523C83.5841 71.5235 83.9934 74.0473 82.7643 76.2186C80.6013 79.9149 74.519 81.4992 69.6054 81.4992ZM65.2767 75.3961C65.5102 75.5132 66.1543 75.7475 67.4411 75.9238C72.2957 76.687 77.6185 74.6921 78.0278 73.5184C78.0278 73.5184 77.9701 73.2841 77.6185 72.8736C75.4542 70.2918 75.2785 69.0588 75.1617 65.5388C75.104 64.248 75.045 62.4281 74.8115 59.9056C74.578 57.383 74.2265 57.2067 70.3661 57.558C67.9093 57.7922 65.16 58.0278 62.9957 56.2079C62.5274 55.8566 62.1182 55.5039 61.7679 55.2105C58.4336 52.6287 57.2059 50.9852 56.9724 42.8293C56.9133 39.6015 55.7446 39.2501 50.831 39.0738C48.7834 39.0146 46.6191 38.8975 44.7473 38.1343C41.2962 36.7263 40.8293 33.4405 40.4187 31.093C39.9504 28.277 39.717 27.1032 37.3192 26.5742C31.8205 25.2834 30.6505 23.2293 29.5395 20.1198C28.9545 18.5947 28.3694 16.8341 26.3219 14.3694C22.2858 9.49935 15.7942 14.5444 15.5594 14.78L14.9744 15.2498L14.2726 15.3669C13.7466 15.4261 13.2783 15.5432 12.8691 15.6024C32.8148 37.8408 61.1252 69.2338 63.2305 71.0524C65.0446 72.5196 65.2781 74.2803 65.3948 75.2185C65.219 75.2198 65.2767 75.279 65.2767 75.3961Z" fill="#4C2F1B"/>
<path d="M3.15857 17.2459V84.5494C3.15857 87.5417 5.55636 89.9485 8.53916 89.9485H75.2784C80.074 89.9485 82.5321 84.1388 79.1388 80.6781L12.4008 13.4325C9.00875 10.0283 3.15857 12.4351 3.15857 17.2459Z" fill="#FFE9B8"/>
<path d="M8.54048 92.7C4.09251 92.7 0.473526 89.0708 0.473526 84.6086V17.2473C0.473526 13.922 2.43452 10.9784 5.4711 9.74938C6.45094 9.34672 7.48194 9.14276 8.54179 9.14276C10.689 9.14276 12.7878 10.0112 14.2988 11.5285L81.0368 78.8306C83.3966 81.1979 84.0563 84.5876 82.7578 87.6773C81.4579 90.7762 78.5931 92.7013 75.2798 92.7013H8.54048V92.7ZM8.59819 14.5418C8.16402 14.5418 7.8138 14.6642 7.60524 14.7366L7.46357 14.7918C6.12564 15.4629 5.84494 16.5288 5.84494 17.3039V84.6073C5.84494 86.1048 7.10548 87.3707 8.59951 87.3707H75.3375C76.1114 87.3707 77.1752 87.0877 77.8428 85.7442C78.1393 85.1495 78.3623 83.8401 77.3168 82.7164L10.5041 15.3366C9.98597 14.8155 9.32619 14.5418 8.59819 14.5418Z" fill="#4C2F1B"/>
<path d="M47.5544 28.5125C47.5544 29.3547 48.2351 30.039 49.0746 30.039C49.9141 30.039 50.5949 29.356 50.5949 28.5125C50.5949 27.6704 49.9141 26.9874 49.0746 26.9874C48.2351 26.9874 47.5544 27.6704 47.5544 28.5125Z" fill="#FF7461"/>
<path d="M54.046 31.2706C54.046 32.1128 54.7267 32.7957 55.5662 32.7957C56.4057 32.7957 57.0865 32.1128 57.0865 31.2706C57.0865 30.4285 56.4057 29.7442 55.5662 29.7442C54.7267 29.7442 54.046 30.4271 54.046 31.2706Z" fill="#FF7A6C"/>
<path d="M12.6933 54.4486C12.6933 56.1013 14.0286 57.4409 15.6761 57.4409C17.3236 57.4409 18.6589 56.1013 18.6589 54.4486C18.6589 53.3788 18.091 52.3918 17.1675 51.8563C16.2454 51.322 15.1082 51.322 14.1847 51.8563C13.2613 52.3918 12.6933 53.3788 12.6933 54.4486Z" fill="#FFD899"/>
<path d="M51.0632 78.799C51.0632 80.4517 52.3985 81.7913 54.046 81.7913C55.6935 81.7913 57.0288 80.4517 57.0288 78.799C57.0288 77.1462 55.6935 75.8067 54.046 75.8067C52.3985 75.8067 51.0632 77.1462 51.0632 78.799Z" fill="#FFD899"/>
<path d="M34.8033 60.7266C34.8033 61.7965 35.3713 62.7834 36.2947 63.3189C37.2169 63.8532 38.3554 63.8532 39.2775 63.3189C40.201 62.7834 40.7689 61.7965 40.7689 60.7266C40.7689 59.6581 40.201 58.6699 39.2775 58.1357C38.3554 57.6014 37.2169 57.6014 36.2947 58.1357C35.3713 58.6699 34.8033 59.6581 34.8033 60.7266Z" fill="#FFD899"/>
<path d="M34.8033 75.3961C34.8033 76.4646 35.3713 77.4528 36.2947 77.9871C37.2169 78.5213 38.3554 78.5213 39.2775 77.9871C40.201 77.4528 40.7689 76.4646 40.7689 75.3961C40.7689 74.3263 40.201 73.3394 39.2775 72.8038C38.3554 72.2696 37.2169 72.2696 36.2947 72.8038C35.3713 73.3394 34.8033 74.3263 34.8033 75.3961Z" fill="#FFD899"/>
<path d="M26.6721 65.8902C26.6721 66.9587 27.2414 67.9469 28.1635 68.4812C29.0869 69.0154 30.2242 69.0154 31.1463 68.4812C32.0698 67.9469 32.6377 66.9587 32.6377 65.8902C32.6377 64.8204 32.0698 63.8335 31.1463 63.2992C30.2242 62.7637 29.0856 62.7637 28.1635 63.2992C27.2414 63.8335 26.6721 64.8217 26.6721 65.8902Z" fill="#FFD899"/>
<path d="M24.8593 44.1794C24.8593 45.2493 25.4273 46.2362 26.3507 46.7717C27.2729 47.306 28.4114 47.306 29.3335 46.7717C30.2557 46.2362 30.8249 45.2493 30.8249 44.1794C30.8249 43.1109 30.257 42.1227 29.3335 41.5885C28.4101 41.0542 27.2729 41.0542 26.3507 41.5885C25.4273 42.1214 24.8593 43.1109 24.8593 44.1794Z" fill="#FFD899"/>
<path d="M11.3475 65.5967C11.3475 67.2495 12.6828 68.589 14.3303 68.589C15.9778 68.589 17.3131 67.2495 17.3131 65.5967C17.3131 64.5282 16.7452 63.54 15.8217 63.0058C14.8996 62.4715 13.761 62.4715 12.8389 63.0058C11.9155 63.54 11.3475 64.5282 11.3475 65.5967Z" fill="#FFE3B6"/>
<path d="M17.9572 76.3936C17.9572 77.4634 18.5251 78.4503 19.4486 78.9859C20.3707 79.5201 21.5092 79.5201 22.4314 78.9859C23.3548 78.4503 23.9228 77.4634 23.9228 76.3936C23.9228 75.3251 23.3548 74.3369 22.4314 73.8026C21.5092 73.2684 20.3707 73.2684 19.4486 73.8026C18.5251 74.3369 17.9572 75.3251 17.9572 76.3936Z" fill="#FFE3B6"/>
<path d="M46.2676 68.8246C46.2676 70.4773 47.6029 71.8169 49.2504 71.8169C50.8979 71.8169 52.2332 70.4773 52.2332 68.8246C52.2332 67.1718 50.8979 65.8323 49.2504 65.8323C47.6029 65.831 46.2676 67.1718 46.2676 68.8246Z" fill="#FFE3B6"/>
<path d="M13.5695 42.0674C13.5695 43.7202 14.9062 45.0598 16.5523 45.0598C18.1998 45.0598 19.5351 43.7202 19.5351 42.0674C19.5351 40.9976 18.9672 40.0107 18.0437 39.4751C17.1203 38.9409 15.9831 38.9409 15.0609 39.4751C14.1388 40.0107 13.5695 40.9976 13.5695 42.0674Z" fill="#FFE3B6"/>
</g>
<defs>
<clipPath id="clip0_3_562">
<rect width="92" height="93" fill="white"/>
</clipPath>
</defs>
</svg>
